<svg xmlns="http://www.w3.org/2000/svg" xmlns:xlink="http://www.w3.org/1999/xlink" width="600" zoomAndPan="magnify" viewBox="0 0 450 299.999988" height="400" preserveAspectRatio="xMidYMid meet" version="1.0"><defs><filter x="0%" y="0%" width="100%" height="100%" id="f7d74fd65a"><feColorMatrix values="0 0 0 0 1 0 0 0 0 1 0 0 0 0 1 0 0 0 1 0" color-interpolation-filters="sRGB"/></filter><g/><mask id="d3f6392b06"><g filter="url(#f7d74fd65a)"><rect x="-45" width="540" fill="#000000" y="-29.999999" height="359.999986" fill-opacity="0.65"/></g></mask><clipPath id="6f7e28c9da"><path d="M 31.433594 31.339844 L 385 31.339844 L 385 264.660156 L 31.433594 264.660156 Z M 31.433594 31.339844 " clip-rule="nonzero"/></clipPath><clipPath id="d1b257e0ec"><path d="M 45.683594 31.339844 L 370.316406 31.339844 C 374.097656 31.339844 377.71875 32.839844 380.394531 35.511719 C 383.066406 38.1875 384.566406 41.808594 384.566406 45.589844 L 384.566406 250.410156 C 384.566406 254.191406 383.066406 257.8125 380.394531 260.488281 C 377.71875 263.160156 374.097656 264.660156 370.316406 264.660156 L 45.683594 264.660156 C 41.902344 264.660156 38.28125 263.160156 35.605469 260.488281 C 32.933594 257.8125 31.433594 254.191406 31.433594 250.410156 L 31.433594 45.589844 C 31.433594 41.808594 32.933594 38.1875 35.605469 35.511719 C 38.28125 32.839844 41.902344 31.339844 45.683594 31.339844 Z M 45.683594 31.339844 " clip-rule="nonzero"/></clipPath><clipPath id="d7c9b46aa9"><path d="M 31.433594 31.339844 L 384.683594 31.339844 L 384.683594 264.589844 L 31.433594 264.589844 Z M 31.433594 31.339844 " clip-rule="nonzero"/></clipPath><clipPath id="b531b65f71"><path d="M 45.683594 31.339844 L 370.316406 31.339844 C 374.09375 31.339844 377.71875 32.839844 380.390625 35.511719 C 383.066406 38.1875 384.566406 41.808594 384.566406 45.589844 L 384.566406 250.410156 C 384.566406 254.1875 383.066406 257.8125 380.390625 260.484375 C 377.71875 263.160156 374.09375 264.660156 370.316406 264.660156 L 45.683594 264.660156 C 41.90625 264.660156 38.28125 263.160156 35.609375 260.484375 C 32.933594 257.8125 31.433594 254.1875 31.433594 250.410156 L 31.433594 45.589844 C 31.433594 41.808594 32.933594 38.1875 35.609375 35.511719 C 38.28125 32.839844 41.90625 31.339844 45.683594 31.339844 Z M 45.683594 31.339844 " clip-rule="nonzero"/></clipPath><clipPath id="2e0461d4cf"><rect x="0" width="416" y="0" height="296"/></clipPath><clipPath id="73fa29bddf"><path d="M 52 265 L 72 265 L 72 294 L 52 294 Z M 52 265 " clip-rule="nonzero"/></clipPath><clipPath id="5453f5d9b9"><path d="M 51.46875 267.097656 L 69.984375 264.140625 L 74.359375 291.542969 L 55.847656 294.5 Z M 51.46875 267.097656 " clip-rule="nonzero"/></clipPath><clipPath id="518b8bb56f"><path d="M 51.46875 267.097656 L 69.984375 264.140625 L 74.359375 291.542969 L 55.847656 294.5 Z M 51.46875 267.097656 " clip-rule="nonzero"/></clipPath><clipPath id="03999a3234"><path d="M 51.46875 267.097656 L 69.984375 264.140625 L 74.359375 291.542969 L 55.847656 294.5 Z M 51.46875 267.097656 " clip-rule="nonzero"/></clipPath><clipPath id="7971b9817d"><path d="M 51.46875 267.097656 L 69.984375 264.140625 L 74.363281 291.546875 L 55.847656 294.503906 Z M 51.46875 267.097656 " clip-rule="nonzero"/></clipPath><clipPath id="322a460539"><path d="M 51.46875 267.097656 L 69.984375 264.140625 L 74.359375 291.542969 L 55.847656 294.5 Z M 51.46875 267.097656 " clip-rule="nonzero"/></clipPath></defs><rect x="-45" width="540" fill="#ffffff" y="-29.999999" height="359.999986" fill-opacity="1"/><rect x="-45" width="540" fill="#004aad" y="-29.999999" height="359.999986" fill-opacity="1"/><g mask="url(#d3f6392b06)"><g transform="matrix(1, 0, 0, 1, 17, 2)"><g clip-path="url(#2e0461d4cf)"><g clip-path="url(#6f7e28c9da)"><g clip-path="url(#d1b257e0ec)"><path fill="#ffffff" d="M 31.433594 31.339844 L 384.148438 31.339844 L 384.148438 264.660156 L 31.433594 264.660156 Z M 31.433594 31.339844 " fill-opacity="1" fill-rule="nonzero"/></g></g><g clip-path="url(#d7c9b46aa9)"><g clip-path="url(#b531b65f71)"><path stroke-linecap="butt" transform="matrix(0.75, 0, 0, 0.75, 31.433976, 31.339515)" fill="none" stroke-linejoin="miter" d="M 18.999492 0.00043807 L 451.843277 0.00043807 C 456.879736 0.00043807 461.71307 2.000438 465.27557 5.562939 C 468.843279 9.130647 470.843279 13.958773 470.843279 19.00044 L 470.843279 292.094212 C 470.843279 297.130671 468.843279 301.964004 465.27557 305.526505 C 461.71307 309.094213 456.879736 311.094213 451.843277 311.094213 L 18.999492 311.094213 C 13.963033 311.094213 9.1297 309.094213 5.567199 305.526505 C 1.999491 301.964004 -0.000509566 297.130671 -0.000509566 292.094212 L -0.000509566 19.00044 C -0.000509566 13.958773 1.999491 9.130647 5.567199 5.562939 C 9.1297 2.000438 13.963033 0.00043807 18.999492 0.00043807 Z M 18.999492 0.00043807 " stroke="#ffffff" stroke-width="20" stroke-opacity="1" stroke-miterlimit="4"/></g></g></g></g></g><g fill="#000000" fill-opacity="1"><g transform="translate(65.65583, 30.367311)"><g><path d="M 6.128906 -4.183594 C 6.148438 -3.722656 6.320312 -3.238281 6.636719 -2.734375 C 6.957031 -2.230469 7.367188 -1.988281 7.875 -2.007812 C 8.378906 -2.03125 8.789062 -2.230469 9.109375 -2.601562 C 9.425781 -2.976562 9.597656 -3.449219 9.621094 -4.019531 C 9.621094 -4.171875 9.625 -4.375 9.636719 -4.628906 C 9.648438 -4.882812 9.65625 -5.058594 9.667969 -5.15625 C 9.679688 -5.253906 9.691406 -5.398438 9.703125 -5.582031 C 9.714844 -5.769531 9.722656 -5.898438 9.734375 -5.960938 C 9.746094 -6.027344 9.769531 -6.128906 9.800781 -6.257812 C 9.832031 -6.390625 9.871094 -6.480469 9.917969 -6.523438 C 9.960938 -6.566406 10.015625 -6.621094 10.082031 -6.6875 C 10.148438 -6.753906 10.21875 -6.796875 10.296875 -6.820312 C 10.371094 -6.839844 10.46875 -6.863281 10.589844 -6.886719 C 10.710938 -6.90625 10.839844 -6.917969 10.96875 -6.917969 C 11.542969 -6.941406 11.894531 -6.601562 12.023438 -5.898438 C 12.15625 -5.195312 12.132812 -4.316406 11.957031 -3.261719 C 11.871094 -2.296875 11.46875 -1.554688 10.757812 -1.039062 C 10.042969 -0.523438 9.148438 -0.242188 8.070312 -0.199219 C 5.371094 -0.0664062 3.855469 -1.132812 3.523438 -3.394531 C 3.238281 -5.324219 3.152344 -7.90625 3.261719 -11.136719 C 2.164062 -11.289062 1.582031 -11.441406 1.515625 -11.597656 C 1.472656 -11.707031 1.554688 -11.832031 1.761719 -11.976562 C 1.972656 -12.117188 2.230469 -12.238281 2.535156 -12.335938 C 2.84375 -12.4375 3.097656 -12.484375 3.292969 -12.484375 C 3.402344 -14.746094 3.578125 -16.953125 3.820312 -19.105469 C 3.867188 -19.546875 3.957031 -19.886719 4.101562 -20.128906 C 4.246094 -20.371094 4.503906 -20.480469 4.875 -20.457031 C 5.46875 -20.390625 5.933594 -20.207031 6.277344 -19.898438 C 6.617188 -19.589844 6.765625 -19.226562 6.71875 -18.8125 C 6.566406 -16.988281 6.425781 -14.867188 6.292969 -12.453125 C 6.601562 -12.453125 7.015625 -12.429688 7.542969 -12.386719 C 7.917969 -12.363281 8.273438 -12.300781 8.613281 -12.1875 C 8.957031 -12.078125 9.125 -11.9375 9.125 -11.761719 C 9.101562 -11.628906 8.90625 -11.503906 8.53125 -11.382812 C 8.160156 -11.261719 7.773438 -11.191406 7.378906 -11.167969 C 7.136719 -11.144531 6.753906 -11.136719 6.226562 -11.136719 C 6.09375 -8.300781 6.0625 -5.984375 6.128906 -4.183594 Z M 6.128906 -4.183594 "/></g></g></g><g fill="#000000" fill-opacity="1"><g transform="translate(77.678897, 30.367311)"><g><path d="M 8.136719 -11.894531 C 6.488281 -10.730469 5.46875 -8.992188 5.074219 -6.6875 C 4.875 -5.324219 4.914062 -4.050781 5.1875 -2.867188 C 5.464844 -1.679688 5.972656 -1.011719 6.71875 -0.855469 C 7.335938 -0.679688 7.894531 -1.109375 8.402344 -2.140625 C 8.90625 -3.171875 9.203125 -4.335938 9.289062 -5.632812 C 9.488281 -8.335938 9.214844 -10.332031 8.464844 -11.628906 C 8.464844 -11.652344 8.355469 -11.738281 8.136719 -11.894531 Z M 8.105469 -13.046875 C 9.445312 -12.824219 10.542969 -11.949219 11.398438 -10.410156 C 12.253906 -8.871094 12.652344 -7.148438 12.585938 -5.238281 C 12.519531 -3.613281 11.875 -2.246094 10.65625 -1.136719 C 9.4375 -0.0273438 8.097656 0.40625 6.636719 0.164062 C 5.175781 -0.078125 3.964844 -0.867188 2.996094 -2.207031 C 2.03125 -3.546875 1.613281 -5.019531 1.746094 -6.621094 C 1.855469 -8.160156 2.378906 -9.566406 3.3125 -10.839844 C 4.246094 -12.113281 5.378906 -12.882812 6.71875 -13.144531 C 7.183594 -13.253906 7.644531 -13.222656 8.105469 -13.046875 Z M 8.105469 -13.046875 "/></g></g></g><g fill="#000000" fill-opacity="1"><g transform="translate(90.064302, 30.367311)"><g/></g></g><g fill="#000000" fill-opacity="1"><g transform="translate(98.628678, 30.367311)"><g><path d="M 7.9375 -2.40625 C 8.597656 -2.535156 9.140625 -2.925781 9.570312 -3.574219 C 10 -4.222656 10.203125 -4.953125 10.179688 -5.765625 C 10.15625 -6.796875 9.933594 -7.707031 9.503906 -8.5 C 9.074219 -9.289062 8.511719 -9.761719 7.808594 -9.917969 C 7.457031 -10.003906 7.097656 -9.824219 6.738281 -9.371094 C 6.375 -8.921875 6.027344 -8.246094 5.699219 -7.347656 C 5.699219 -7.324219 5.683594 -7.28125 5.648438 -7.214844 C 5.617188 -7.148438 5.578125 -7.066406 5.535156 -6.96875 C 5.492188 -6.867188 5.445312 -6.765625 5.402344 -6.65625 C 5.402344 -6.390625 5.410156 -6.023438 5.417969 -5.550781 C 5.429688 -5.078125 5.4375 -4.734375 5.4375 -4.511719 L 5.535156 -4.316406 C 5.554688 -4.25 5.582031 -4.167969 5.617188 -4.070312 C 5.648438 -3.96875 5.730469 -3.792969 5.863281 -3.542969 C 5.996094 -3.289062 6.148438 -3.082031 6.324219 -2.914062 C 6.5 -2.75 6.726562 -2.609375 7 -2.488281 C 7.273438 -2.367188 7.589844 -2.339844 7.9375 -2.40625 Z M 2.371094 -3.195312 C 2.066406 -4.863281 1.953125 -7.351562 2.042969 -10.65625 C 2.128906 -13.960938 2.4375 -16.328125 2.964844 -17.757812 C 3.273438 -18.546875 3.816406 -19.195312 4.59375 -19.699219 C 5.375 -20.207031 6.3125 -20.492188 7.414062 -20.558594 C 9.082031 -20.621094 10.351562 -20.300781 11.21875 -19.585938 C 12.085938 -18.871094 12.585938 -17.722656 12.714844 -16.140625 C 12.824219 -14.824219 12.464844 -14.046875 11.628906 -13.804688 C 11.277344 -13.757812 11.003906 -13.730469 10.804688 -13.722656 C 10.609375 -13.710938 10.453125 -13.808594 10.34375 -14.015625 C 10.234375 -14.226562 10.167969 -14.40625 10.148438 -14.5625 C 10.125 -14.714844 10.109375 -14.921875 10.097656 -15.1875 C 10.085938 -15.449219 10.070312 -15.636719 10.046875 -15.746094 C 9.9375 -16.40625 9.675781 -17.097656 9.257812 -17.824219 C 8.839844 -18.546875 8.3125 -18.898438 7.675781 -18.875 C 7.015625 -18.855469 6.46875 -18.265625 6.027344 -17.113281 C 5.589844 -15.960938 5.371094 -14.5625 5.371094 -12.914062 L 5.371094 -10.839844 C 5.875 -11.210938 6.445312 -11.429688 7.082031 -11.496094 C 10.136719 -11.828125 12.078125 -10.585938 12.914062 -7.773438 C 13.046875 -7.335938 13.117188 -6.824219 13.128906 -6.242188 C 13.140625 -5.660156 13.058594 -5.03125 12.882812 -4.347656 C 12.707031 -3.667969 12.4375 -3.035156 12.074219 -2.453125 C 11.710938 -1.871094 11.199219 -1.355469 10.542969 -0.90625 C 9.882812 -0.457031 9.101562 -0.175781 8.203125 -0.0664062 C 7.125 0.0859375 6.066406 -0.0234375 5.023438 -0.394531 C 3.980469 -0.769531 3.261719 -1.296875 2.867188 -1.976562 C 2.667969 -2.195312 2.503906 -2.601562 2.371094 -3.195312 Z M 2.371094 -3.195312 "/></g></g></g><g fill="#000000" fill-opacity="1"><g transform="translate(111.607002, 30.367311)"><g><path d="M 4.972656 -3.292969 C 4.972656 -3.273438 4.941406 -3.167969 4.875 -2.980469 C 4.808594 -2.792969 4.738281 -2.613281 4.660156 -2.4375 C 4.585938 -2.261719 4.492188 -2.042969 4.382812 -1.777344 C 4.273438 -1.515625 4.160156 -1.289062 4.050781 -1.105469 C 3.941406 -0.917969 3.820312 -0.734375 3.691406 -0.558594 C 3.558594 -0.382812 3.421875 -0.261719 3.277344 -0.199219 C 3.136719 -0.132812 2.988281 -0.132812 2.832031 -0.199219 C 1.714844 -0.660156 1.40625 -1.667969 1.910156 -3.226562 C 3.667969 -8.917969 6.128906 -15.109375 9.289062 -21.808594 C 9.464844 -22.183594 9.761719 -22.496094 10.179688 -22.746094 C 10.597656 -23 11.023438 -22.984375 11.464844 -22.699219 C 11.992188 -22.28125 11.882812 -21.183594 11.136719 -19.402344 C 10.9375 -18.898438 10.515625 -17.804688 9.867188 -16.125 C 9.21875 -14.445312 8.390625 -12.265625 7.378906 -9.585938 C 6.367188 -6.90625 5.566406 -4.808594 4.972656 -3.292969 Z M 4.972656 -3.292969 "/></g></g></g><g fill="#000000" fill-opacity="1"><g transform="translate(122.641871, 30.367311)"><g><path d="M 2.175781 -15.023438 C 2.503906 -16.78125 3.414062 -18.179688 4.910156 -19.222656 C 6.402344 -20.265625 7.894531 -20.578125 9.390625 -20.160156 C 10.640625 -19.832031 11.503906 -18.820312 11.976562 -17.128906 C 12.445312 -15.441406 12.476562 -13.878906 12.058594 -12.453125 C 11.859375 -11.707031 11.535156 -10.925781 11.085938 -10.113281 C 10.636719 -9.300781 10.25 -8.660156 9.933594 -8.1875 C 9.613281 -7.714844 9.101562 -7.027344 8.402344 -6.128906 C 7.699219 -5.226562 7.257812 -4.65625 7.082031 -4.414062 C 6.183594 -3.207031 5.621094 -2.371094 5.402344 -1.910156 C 5.425781 -1.910156 5.453125 -1.917969 5.484375 -1.925781 C 5.519531 -1.9375 5.546875 -1.945312 5.566406 -1.945312 C 8.863281 -1.8125 10.882812 -1.769531 11.628906 -1.8125 C 12.046875 -1.855469 12.402344 -1.746094 12.699219 -1.484375 C 12.996094 -1.21875 13.046875 -0.945312 12.847656 -0.660156 C 12.605469 -0.328125 12.070312 -0.132812 11.234375 -0.0664062 C 10.3125 0.0429688 9.277344 0.078125 8.136719 0.03125 C 4.996094 0.273438 3.171875 -0.261719 2.667969 -1.582031 C 2.601562 -1.890625 2.554688 -2.164062 2.519531 -2.40625 C 2.488281 -2.644531 2.542969 -2.933594 2.683594 -3.261719 C 2.828125 -3.589844 2.964844 -3.875 3.097656 -4.117188 C 3.226562 -4.359375 3.433594 -4.65625 3.707031 -5.007812 C 3.980469 -5.359375 4.226562 -5.675781 4.449219 -5.960938 C 4.667969 -6.25 4.9375 -6.582031 5.253906 -6.96875 C 5.574219 -7.351562 5.84375 -7.707031 6.0625 -8.039062 C 7.007812 -9.335938 7.824219 -10.734375 8.515625 -12.238281 C 9.207031 -13.742188 9.519531 -15.042969 9.453125 -16.140625 C 9.433594 -16.605469 9.351562 -17.003906 9.207031 -17.34375 C 9.066406 -17.683594 8.917969 -17.921875 8.761719 -18.054688 C 8.609375 -18.183594 8.457031 -18.207031 8.300781 -18.117188 C 7.949219 -17.921875 7.621094 -17.648438 7.3125 -17.296875 C 7.007812 -16.945312 6.769531 -16.632812 6.605469 -16.355469 C 6.441406 -16.082031 6.253906 -15.726562 6.046875 -15.285156 C 5.835938 -14.847656 5.699219 -14.570312 5.632812 -14.460938 C 4.667969 -12.683594 3.820312 -11.992188 3.097656 -12.386719 C 2.636719 -12.652344 2.324219 -13.046875 2.15625 -13.574219 C 1.992188 -14.101562 2 -14.582031 2.175781 -15.023438 Z M 2.175781 -15.023438 "/></g></g></g><g fill="#000000" fill-opacity="1"><g transform="translate(75.744786, 295.186029)"><g><path d="M 11.175781 -20.035156 C 10.542969 -20.152344 9.851562 -19.882812 9.105469 -19.226562 C 8.355469 -18.570312 7.699219 -17.820312 7.136719 -16.976562 C 6.574219 -16.132812 6.175781 -15.277344 5.941406 -14.410156 C 5.707031 -13.542969 5.707031 -12.851562 5.941406 -12.335938 C 6.199219 -11.820312 6.625 -11.300781 7.222656 -10.773438 C 7.820312 -10.246094 8.4375 -9.78125 9.070312 -9.382812 C 9.699219 -8.988281 10.351562 -8.5 11.019531 -7.925781 C 11.6875 -7.351562 12.195312 -6.761719 12.546875 -6.152344 C 13.0625 -5.285156 13.035156 -4.269531 12.460938 -3.109375 C 11.886719 -1.949219 11.105469 -1.136719 10.121094 -0.667969 C 9.234375 -0.222656 8.195312 -0.0390625 7.011719 -0.121094 C 5.828125 -0.203125 4.921875 -0.585938 4.289062 -1.265625 C 3.703125 -1.851562 3.351562 -2.628906 3.234375 -3.601562 C 3.117188 -4.574219 3.292969 -5.296875 3.761719 -5.765625 C 4.347656 -6.164062 4.839844 -6.179688 5.238281 -5.816406 C 5.636719 -5.453125 5.835938 -4.957031 5.835938 -4.324219 C 5.835938 -2.378906 6.222656 -1.359375 6.996094 -1.265625 C 7.511719 -1.21875 7.992188 -1.453125 8.4375 -1.96875 C 8.882812 -2.484375 9.199219 -3.070312 9.382812 -3.726562 C 9.921875 -5.554688 9.105469 -7.253906 6.925781 -8.824219 C 6.902344 -8.847656 6.648438 -9.027344 6.167969 -9.367188 C 5.6875 -9.707031 5.378906 -9.921875 5.238281 -10.015625 C 5.097656 -10.109375 4.832031 -10.316406 4.445312 -10.632812 C 4.058594 -10.949219 3.789062 -11.222656 3.636719 -11.457031 C 3.484375 -11.691406 3.296875 -11.980469 3.074219 -12.320312 C 2.851562 -12.660156 2.707031 -13 2.636719 -13.339844 C 2.566406 -13.679688 2.542969 -14.046875 2.566406 -14.445312 C 2.707031 -16.648438 4.21875 -18.523438 7.101562 -20.070312 C 7.804688 -20.46875 8.582031 -20.773438 9.4375 -20.984375 C 10.292969 -21.195312 11.1875 -21.265625 12.125 -21.195312 C 13.0625 -21.125 13.8125 -20.832031 14.375 -20.316406 C 14.84375 -19.847656 15.125 -19.15625 15.21875 -18.242188 C 15.3125 -17.328125 15.3125 -16.542969 15.21875 -15.886719 C 15.125 -15.230469 14.960938 -14.375 14.726562 -13.320312 C 14.234375 -11.28125 13.507812 -10.179688 12.546875 -10.015625 C 12.101562 -9.945312 11.75 -10.121094 11.492188 -10.542969 C 11.234375 -10.964844 11.152344 -11.363281 11.246094 -11.738281 C 11.691406 -13.121094 11.898438 -14.832031 11.863281 -16.871094 C 11.828125 -18.910156 11.597656 -19.964844 11.175781 -20.035156 Z M 11.175781 -20.035156 "/></g></g></g><g fill="#000000" fill-opacity="1"><g transform="translate(90.997631, 295.186029)"><g><path d="M 7.207031 -3.585938 C 7.207031 -3.539062 7.207031 -3.386719 7.207031 -3.128906 C 7.207031 -2.871094 7.199219 -2.652344 7.1875 -2.476562 C 7.175781 -2.300781 7.148438 -2.074219 7.101562 -1.792969 C 7.054688 -1.511719 6.988281 -1.277344 6.90625 -1.089844 C 6.824219 -0.902344 6.71875 -0.703125 6.589844 -0.492188 C 6.460938 -0.28125 6.285156 -0.121094 6.0625 -0.015625 C 5.839844 0.0859375 5.589844 0.140625 5.308594 0.140625 C 5.097656 0.140625 4.921875 0.121094 4.78125 0.0859375 C 4.640625 0.0507812 4.515625 -0.0234375 4.410156 -0.140625 C 4.304688 -0.257812 4.222656 -0.367188 4.164062 -0.472656 C 4.105469 -0.578125 4.054688 -0.75 4.007812 -0.984375 C 3.960938 -1.21875 3.929688 -1.417969 3.917969 -1.582031 C 3.90625 -1.746094 3.882812 -2.003906 3.847656 -2.355469 C 3.8125 -2.707031 3.785156 -2.988281 3.761719 -3.199219 C 3.292969 -7.347656 3.386719 -12.839844 4.042969 -19.683594 C 4.066406 -19.988281 4.28125 -20.390625 4.691406 -20.894531 C 5.101562 -21.398438 5.507812 -21.664062 5.90625 -21.6875 C 6.351562 -21.710938 6.671875 -21.429688 6.871094 -20.84375 C 7.070312 -20.257812 7.171875 -19.636719 7.171875 -18.980469 C 7.171875 -18.582031 7.175781 -18.074219 7.1875 -17.453125 C 7.199219 -16.832031 7.21875 -16.058594 7.242188 -15.132812 C 7.265625 -14.207031 7.277344 -13.390625 7.277344 -12.6875 C 8.683594 -13.929688 9.734375 -14.9375 10.4375 -15.710938 C 11.140625 -16.484375 11.925781 -17.574219 12.792969 -18.980469 C 12.933594 -19.238281 13.238281 -19.59375 13.707031 -20.050781 C 14.175781 -20.507812 14.597656 -20.738281 14.972656 -20.738281 C 15.417969 -20.714844 15.707031 -20.554688 15.835938 -20.261719 C 15.964844 -19.96875 15.96875 -19.648438 15.851562 -19.296875 C 14.679688 -16.367188 12.675781 -13.695312 9.839844 -11.28125 C 10.730469 -10.484375 11.546875 -9.542969 12.285156 -8.453125 C 13.023438 -7.363281 13.753906 -6.117188 14.480469 -4.710938 C 15.207031 -3.304688 15.652344 -2.449219 15.816406 -2.144531 C 16.097656 -1.746094 16.167969 -1.328125 16.027344 -0.894531 C 15.886719 -0.460938 15.582031 -0.316406 15.113281 -0.457031 C 14.152344 -0.785156 13.25 -1.371094 12.40625 -2.214844 C 11.5625 -3.058594 10.917969 -3.882812 10.472656 -4.691406 C 10.027344 -5.5 9.542969 -6.460938 9.015625 -7.574219 C 8.488281 -8.6875 8.132812 -9.417969 7.945312 -9.769531 C 7.945312 -9.792969 7.933594 -9.804688 7.910156 -9.804688 L 7.347656 -9.558594 C 7.347656 -7.382812 7.300781 -5.390625 7.207031 -3.585938 Z M 7.207031 -3.585938 "/></g></g></g><g fill="#000000" fill-opacity="1"><g transform="translate(106.35591, 295.186029)"><g><path d="M 6.117188 -3.621094 C 6.421875 -2.988281 6.46875 -2.277344 6.257812 -1.492188 C 6.046875 -0.707031 5.542969 -0.351562 4.746094 -0.421875 C 4.066406 -0.46875 3.503906 -0.765625 3.058594 -1.316406 C 2.613281 -1.867188 2.601562 -2.707031 3.023438 -3.832031 C 3.164062 -4.324219 3.65625 -4.5625 4.5 -4.550781 C 5.34375 -4.539062 5.882812 -4.230469 6.117188 -3.621094 Z M 6.117188 -3.621094 "/></g></g></g><g fill="#000000" fill-opacity="1"><g transform="translate(112.049368, 295.186029)"><g><path d="M 4.113281 -16.519531 C 4.863281 -18.464844 5.6875 -19.929688 6.589844 -20.914062 C 7.492188 -21.898438 8.25 -22.132812 8.859375 -21.617188 C 9.304688 -21.265625 9.652344 -20.621094 9.910156 -19.683594 C 10.167969 -18.746094 10.328125 -17.867188 10.386719 -17.046875 C 10.445312 -16.226562 10.496094 -15.078125 10.542969 -13.601562 C 10.660156 -9.945312 10.589844 -6.070312 10.332031 -1.96875 L 11.84375 -1.96875 C 12.289062 -2.015625 12.683594 -1.910156 13.023438 -1.652344 C 13.363281 -1.394531 13.414062 -1.136719 13.179688 -0.878906 C 12.898438 -0.550781 12.3125 -0.351562 11.421875 -0.28125 C 9.570312 -0.140625 7.40625 -0.152344 4.921875 -0.316406 C 4.710938 -0.339844 4.488281 -0.449219 4.253906 -0.648438 C 4.019531 -0.847656 3.914062 -1.066406 3.9375 -1.300781 C 3.960938 -1.511719 4.113281 -1.699219 4.394531 -1.863281 C 4.675781 -2.027344 4.933594 -2.097656 5.167969 -2.074219 C 5.894531 -2.074219 6.574219 -2.0625 7.207031 -2.039062 C 7.183594 -3.960938 7.21875 -6.269531 7.3125 -8.964844 C 7.453125 -13.625 7.511719 -16.226562 7.488281 -16.765625 C 6.996094 -15.78125 6.28125 -15.195312 5.34375 -15.007812 C 4.851562 -14.914062 4.480469 -14.992188 4.234375 -15.238281 C 3.988281 -15.484375 3.949219 -15.910156 4.113281 -16.519531 Z M 4.113281 -16.519531 "/></g></g></g><g fill="#000000" fill-opacity="1"><g transform="translate(328.211549, 264.463158)"><g/></g></g><g fill="#ffde59" fill-opacity="1"><g transform="translate(356.31561, 75.564216)"><g><path d="M 62.917969 -50.683594 C 63.417969 -50.183594 63.75 -50.101562 64.332031 -50.515625 L 70.90625 -55.59375 C 71.488281 -56.011719 71.488281 -56.84375 70.992188 -57.257812 L 67.246094 -61.085938 C 66.746094 -61.585938 65.996094 -61.503906 65.496094 -60.921875 L 60.421875 -54.429688 C 60.003906 -53.847656 60.089844 -53.511719 60.671875 -52.929688 Z M 38.78125 -61.003906 C 38.867188 -60.339844 39.199219 -60.171875 39.949219 -60.171875 L 43.195312 -60.171875 C 43.859375 -60.171875 44.109375 -60.339844 44.277344 -61.003906 L 45.359375 -69.242188 C 45.441406 -69.992188 44.941406 -70.574219 44.277344 -70.574219 L 38.78125 -70.574219 C 38.117188 -70.574219 37.617188 -69.992188 37.785156 -69.242188 Z M 18.808594 -50.433594 C 19.390625 -50.019531 19.640625 -50.101562 20.222656 -50.601562 L 22.554688 -52.929688 C 23.054688 -53.429688 23.054688 -53.679688 22.636719 -54.261719 L 17.644531 -60.921875 C 17.226562 -61.417969 16.394531 -61.503906 15.894531 -61.003906 L 12.066406 -57.175781 C 11.566406 -56.675781 11.652344 -55.84375 12.234375 -55.511719 Z M 13.066406 -33.125 C 13.066406 -33.871094 12.898438 -34.121094 12.066406 -34.207031 L 3.910156 -35.371094 C 3.246094 -35.453125 2.664062 -34.871094 2.664062 -34.207031 L 2.664062 -28.796875 C 2.664062 -28.128906 3.246094 -27.546875 3.910156 -27.714844 L 12.066406 -28.796875 C 12.898438 -28.878906 13.066406 -29.128906 13.066406 -29.960938 Z M 20.308594 -12.484375 C 19.808594 -12.984375 19.472656 -13.066406 18.890625 -12.566406 L 12.316406 -7.65625 C 11.734375 -7.15625 11.734375 -6.410156 12.234375 -5.910156 L 16.0625 -2.082031 C 16.5625 -1.582031 17.3125 -1.582031 17.726562 -2.246094 L 22.71875 -8.738281 C 23.21875 -9.320312 23.136719 -9.652344 22.554688 -10.238281 Z M 44.441406 -2.082031 C 44.359375 -2.828125 44.027344 -2.996094 43.277344 -2.996094 L 40.03125 -2.996094 C 39.367188 -2.996094 39.117188 -2.828125 38.867188 -2.082031 L 37.867188 6.074219 C 37.785156 6.742188 38.285156 7.40625 39.03125 7.40625 L 44.359375 7.40625 C 45.023438 7.40625 45.523438 6.742188 45.441406 6.074219 Z M 41.613281 -55.425781 C 28.460938 -55.425781 17.808594 -44.773438 17.808594 -31.625 C 17.808594 -18.476562 28.460938 -7.824219 41.613281 -7.824219 C 54.761719 -7.824219 65.414062 -18.476562 65.414062 -31.625 C 65.414062 -44.773438 54.761719 -55.425781 41.613281 -55.425781 Z M 64.5 -12.648438 C 63.832031 -13.148438 63.582031 -13.148438 63 -12.566406 L 60.671875 -10.238281 C 60.171875 -9.820312 60.171875 -9.488281 60.585938 -8.820312 L 65.582031 -2.332031 C 65.996094 -1.746094 66.828125 -1.664062 67.328125 -2.164062 L 71.074219 -5.910156 C 71.574219 -6.410156 71.488281 -7.242188 70.992188 -7.65625 Z M 71.074219 -34.371094 C 70.324219 -34.289062 70.160156 -34.039062 70.160156 -33.289062 L 70.160156 -30.042969 C 70.160156 -29.296875 70.324219 -29.046875 71.074219 -28.878906 L 79.3125 -27.796875 C 79.980469 -27.714844 80.5625 -28.296875 80.5625 -28.960938 L 80.5625 -34.289062 C 80.5625 -35.039062 79.980469 -35.535156 79.3125 -35.453125 Z M 71.074219 -34.371094 "/></g></g></g><g clip-path="url(#73fa29bddf)"><g clip-path="url(#5453f5d9b9)"><g clip-path="url(#518b8bb56f)"><g clip-path="url(#03999a3234)"><g clip-path="url(#7971b9817d)"><g clip-path="url(#322a460539)"><path fill="#e60012" d="M 63.304688 279.371094 C 60.488281 280.046875 57.75 278.074219 57.519531 275.199219 C 57.339844 272.9375 58.871094 270.835938 61.085938 270.300781 C 63.90625 269.625 66.640625 271.597656 66.871094 274.472656 C 67.050781 276.734375 65.523438 278.835938 63.304688 279.371094 Z M 60.582031 265.644531 C 55.285156 266.570312 51.953125 271.804688 53.070312 277.039062 C 54.71875 284.78125 62.640625 291.339844 64.667969 292.910156 C 64.925781 293.109375 65.296875 293.050781 65.480469 292.78125 C 66.960938 290.589844 72.742188 281.40625 71.457031 273.355469 C 70.636719 268.222656 65.75 264.738281 60.582031 265.644531 " fill-opacity="1" fill-rule="nonzero"/></g></g></g></g></g></g></svg>